<?xml version="1.0" encoding="UTF-8"?>
<svg width="200px" height="200px" viewBox="0 0 200 200" version="1.1" xmlns="http://www.w3.org/2000/svg" xmlns:xlink="http://www.w3.org/1999/xlink">
    <!-- Generator: Sketch 49.3 (51167) - http://www.bohemiancoding.com/sketch -->
    <title>sun</title>
    <desc>Created with Sketch.</desc>
    <defs></defs>
    <g id="Page-1" stroke="none" stroke-width="1" fill="none" fill-rule="evenodd">
        <g id="Desktop-HD" transform="translate(-90.000000, -80.000000)" fill="#FFD922">
            <g id="01" transform="translate(90.000000, 80.000000)">
                <g id="sun">
                    <path d="M100,152 L100,152 C71.281193,152 48,128.718807 48,100 C48,71.281193 71.281193,48 100,48 C128.718807,48 152,71.281193 152,100 C152,128.718807 128.718807,152 100,152 L100,152 Z" id="O" fill-rule="nonzero"></path>
                    <path d="M92,7.99240541 C92,3.57832179 95.5907123,0 100,0 C104.418278,0 108,3.57766074 108,7.99240541 L108,24.0075946 C108,28.4216782 104.409288,32 100,32 C95.581722,32 92,28.4223393 92,24.0075946 L92,7.99240541 Z M159.40234,29.2839517 C162.523568,26.1627232 167.592841,26.1714847 170.710678,29.2893219 C173.834872,32.4135162 173.837744,37.4759643 170.716048,40.5976602 L159.391599,51.9221091 C156.270371,55.0433375 151.201098,55.0345761 148.083261,51.9167389 C144.959067,48.7925445 144.956195,43.7300965 148.077891,40.6084006 L159.40234,29.2839517 Z M192.007595,92 C196.421678,92 200,95.5907123 200,100 C200,104.418278 196.422339,108 192.007595,108 L175.992405,108 C171.578322,108 168,104.409288 168,100 C168,95.581722 171.577661,92 175.992405,92 L192.007595,92 Z M170.716048,159.40234 C173.837277,162.523568 173.828515,167.592841 170.710678,170.710678 C167.586484,173.834872 162.524036,173.837744 159.40234,170.716048 L148.077891,159.391599 C144.956662,156.270371 144.965424,151.201098 148.083261,148.083261 C151.207455,144.959067 156.269904,144.956195 159.391599,148.077891 L170.716048,159.40234 Z M108,192.007595 C108,196.421678 104.409288,200 100,200 C95.581722,200 92,196.422339 92,192.007595 L92,175.992405 C92,171.578322 95.5907123,168 100,168 C104.418278,168 108,171.577661 108,175.992405 L108,192.007595 Z M40.5976602,170.716048 C37.4764317,173.837277 32.4071591,173.828515 29.2893219,170.710678 C26.1651275,167.586484 26.1622558,162.524036 29.2839517,159.40234 L40.6084006,148.077891 C43.729629,144.956662 48.7989017,144.965424 51.9167389,148.083261 C55.0409332,151.207455 55.043805,156.269904 51.9221091,159.391599 L40.5976602,170.716048 Z M7.99240541,108 C3.57832179,108 1.11675369e-15,104.409288 3.0678068e-16,100 C-5.04843821e-16,95.581722 3.57766074,92 7.99240541,92 L24.0075946,92 C28.4216782,92 32,95.5907123 32,100 C32,104.418278 28.4223393,108 24.0075946,108 L7.99240541,108 Z M29.2839517,40.5976602 C26.1627232,37.4764317 26.1714847,32.4071591 29.2893219,29.2893219 C32.4135162,26.1651275 37.4759643,26.1622558 40.5976602,29.2839517 L51.9221091,40.6084006 C55.0433375,43.729629 55.0345761,48.7989017 51.9167389,51.9167389 C48.7925445,55.0409332 43.7300965,55.043805 40.6084006,51.9221091 L29.2839517,40.5976602 Z" id="light"></path>
                </g>
            </g>
        </g>
    </g>
</svg>