<?xml version="1.0" encoding="UTF-8"?>
<svg width="192px" height="200px" viewBox="0 0 192 200" version="1.1" xmlns="http://www.w3.org/2000/svg" xmlns:xlink="http://www.w3.org/1999/xlink">
    <!-- Generator: Sketch 49.3 (51167) - http://www.bohemiancoding.com/sketch -->
    <title>04</title>
    <desc>Created with Sketch.</desc>
    <defs></defs>
    <g id="Page-1" stroke="none" stroke-width="1" fill="none" fill-rule="evenodd">
        <g id="Desktop-HD" transform="translate(-936.000000, -80.000000)">
            <g id="04" transform="translate(932.000000, 80.000000)">
                <rect id="Rectangle" x="0" y="0" width="200" height="200"></rect>
                <g id="sun" transform="translate(4.000000, 0.000000)" fill="#FFD922">
                    <path d="M71.8690508,103.0538 C59.9171842,100.155697 52,90.9313059 52,80 C52,66.745166 63.6405965,56 80,56 C92.3594035,56 104,66.745166 104,80 C104,84.7379521 102.512668,89.1552412 100.036822,92.8757362 C89.6716799,94.417266 80.1398867,97.943607 71.8690508,103.0538 Z" id="O"></path>
                    <path d="M68.0951429,8.50301122 C68.0951429,3.8069278 71.9156127,0 76.6070357,0 C81.3080244,0 85.1189286,3.80915302 85.1189286,8.50301122 L85.1189286,17.0326674 C85.1189286,21.7287508 81.2984588,25.5356786 76.6070357,25.5356786 C71.9060471,25.5356786 68.0951429,21.7265256 68.0951429,17.0326674 L68.0951429,8.50301122 Z M118.745036,22.431401 C122.065669,19.1107686 127.459053,19.1203442 130.77639,22.4376813 C134.100491,25.7617822 134.101729,31.1499764 130.78267,34.4690353 L124.751293,40.500413 C121.43066,43.8210455 116.037276,43.8114698 112.719939,40.4941328 C109.395838,37.1700318 109.394599,31.7818377 112.713658,28.4627787 L118.745036,22.431401 Z M144.71106,68.0951429 C149.407144,68.0951429 153.214071,71.9156127 153.214071,76.6070357 C153.214071,81.3080244 149.404918,85.1189286 144.71106,85.1189286 L136.181404,85.1189286 C131.485321,85.1189286 127.678393,81.2984588 127.678393,76.6070357 C127.678393,71.9060471 131.487546,68.0951429 136.181404,68.0951429 L144.71106,68.0951429 Z M34.4690353,130.78267 C31.1484029,134.103303 25.7550183,134.093727 22.4376813,130.77639 C19.1135804,127.452289 19.1123421,122.064095 22.431401,118.745036 L28.4627787,112.713658 C31.7834111,109.393026 37.1767957,109.402602 40.4941328,112.719939 C43.8182337,116.04404 43.819472,121.432234 40.500413,124.751293 L34.4690353,130.78267 Z M8.50301122,85.1189286 C3.8069278,85.1189286 -2.47816576e-15,81.2984588 -3.33996619e-15,76.6070357 C-4.20352379e-15,71.9060471 3.80915302,68.0951429 8.50301122,68.0951429 L17.0326674,68.0951429 C21.7287508,68.0951429 25.5356786,71.9156127 25.5356786,76.6070357 C25.5356786,81.3080244 21.7265256,85.1189286 17.0326674,85.1189286 L8.50301122,85.1189286 Z M22.431401,34.4690353 C19.1107686,31.1484029 19.1203442,25.7550183 22.4376813,22.4376813 C25.7617822,19.1135804 31.1499764,19.1123421 34.4690353,22.431401 L40.500413,28.4627787 C43.8210455,31.7834111 43.8114698,37.1767957 40.4941328,40.4941328 C37.1700318,43.8182337 31.7818377,43.819472 28.4627787,40.500413 L22.431401,34.4690353 Z" id="light"></path>
                </g>
                <path d="M52,200 C36.536027,200 24,187.463973 24,172 C24,156.536027 36.536027,144 52,144 C52.0429428,144 52.085863,144.000097 52.1287604,144.00029 C54.0609238,114.172745 77.5239858,92 108,92 C129.658533,92 149.107308,106.64988 156.662569,128.152648 C157.761494,128.051629 158.874718,128 160,128 C179.882251,128 196,144.117749 196,164 C196,182.530215 181.999802,197.790508 164,199.780285 L164,200 L52,200 Z" id="cloud" fill="#FFFFFF"></path>
            </g>
        </g>
    </g>
</svg>