<?xml version="1.0" encoding="UTF-8"?>
<svg width="198px" height="163px" viewBox="0 0 198 163" version="1.1" xmlns="http://www.w3.org/2000/svg" xmlns:xlink="http://www.w3.org/1999/xlink">
    <!-- Generator: Sketch 49.3 (51167) - http://www.bohemiancoding.com/sketch -->
    <title>05</title>
    <desc>Created with Sketch.</desc>
    <defs></defs>
    <g id="Page-1" stroke="none" stroke-width="1" fill="none" fill-rule="evenodd">
        <g id="Desktop-HD" transform="translate(-542.000000, -400.000000)">
            <g id="05" transform="translate(541.000000, 382.000000)">
                <rect id="Rectangle" x="0" y="0" width="200" height="200"></rect>
                <path d="M33.4074363,142.4 L33.4074074,142.4 C15.6524755,142.4 1.25925926,128.006784 1.25925926,110.251852 C1.25925926,92.4969199 15.6524755,78.1037037 33.4074074,78.1037037 C33.4567121,78.1037037 33.5059908,78.1038147 33.5552434,78.1040364 C35.7736532,43.8575965 62.7127244,18.4 97.7037037,18.4 C122.570909,18.4 144.900984,35.2202327 153.575542,59.9085962 C154.837271,59.7926114 156.115417,59.7333333 157.407407,59.7333333 C180.235177,59.7333333 198.740741,78.238897 198.740741,101.066667 C198.740741,122.342098 182.666439,139.863176 162,142.147735 L162,142.4" id="cloud" fill="#FFFFFF"></path>
                <path d="M39.8518519,180.4 C26.6788378,180.4 16,169.721162 16,156.548148 C16,143.375134 26.6788378,132.696296 39.8518519,132.696296 C39.8884327,132.696296 39.9249944,132.696379 39.9615366,132.696543 C41.6074536,107.287894 61.5945064,88.4 87.5555556,88.4 C106.005417,88.4 122.572892,100.879527 129.008855,119.1967 C129.944977,119.110647 130.893278,119.066667 131.851852,119.066667 C148.788584,119.066667 162.518519,132.796601 162.518519,149.733333 C162.518519,165.518331 150.592424,178.51784 135.259259,180.212835 L135.259259,180.4 L39.8518519,180.4 Z" id="cloud-copy" fill="#E5FAFA"></path>
            </g>
        </g>
    </g>
</svg>