<?xml version="1.0" encoding="UTF-8"?>
<svg width="184px" height="201px" viewBox="0 0 184 201" version="1.1" xmlns="http://www.w3.org/2000/svg" xmlns:xlink="http://www.w3.org/1999/xlink">
    <!-- Generator: Sketch 49.3 (51167) - http://www.bohemiancoding.com/sketch -->
    <title>06</title>
    <desc>Created with Sketch.</desc>
    <defs>
        <path d="M128,92 C128,74.326888 113.673112,60 96,60 C78.326888,60 64,74.326888 64,92" id="path-1"></path>
    </defs>
    <g id="Page-1" stroke="none" stroke-width="1" fill="none" fill-rule="evenodd">
        <g id="Desktop-HD" transform="translate(-540.000000, -694.000000)">
            <g id="06" transform="translate(532.000000, 694.000000)">
                <rect id="Rectangle" x="0" y="0" width="200" height="200"></rect>
                <path d="M37.9534884,168 C21.4106335,168 8,156.856865 8,143.111111 C8,129.365357 21.4106335,118.222222 37.9534884,118.222222 C37.9994271,118.222222 38.0453418,118.222308 38.091232,118.22248 C40.1581975,91.709107 65.2582173,72 97.8604651,72 C121.030059,72 141.835725,85.0221156 149.918097,104.135687 C151.093692,104.045893 152.284582,104 153.488372,104 C174.757757,104 192,118.326888 192,136 C192,152.471302 177.023044,166.036007 157.767442,167.804698 L157.767442,168 L37.9534884,168 Z" id="cloud" fill="#FFFFFF"></path>
                <g id="rain" transform="translate(24.000000, 152.000000)" fill="#275DB7">
                    <rect id="1" x="8" y="0" width="16" height="40" rx="8"></rect>
                    <rect id="2" x="31.8889557" y="20.9404832" width="16" height="27.5478842" rx="8"></rect>
                    <rect id="3" x="64" y="12.2288454" width="16" height="27.5478842" rx="8"></rect>
                    <rect id="4" x="92.2220887" y="4.64292561" width="16" height="44.1429975" rx="8"></rect>
                    <rect id="5" x="126.220023" y="8.86609238" width="16" height="31.696662" rx="8"></rect>
                </g>
                <g id="sun" transform="translate(8.000000, 0.000000)">
                    <g id="O" transform="translate(96.000000, 76.000000) rotate(9.000000) translate(-96.000000, -76.000000) ">
                        <use fill="#FFD922" fill-rule="evenodd" xlink:href="#path-1"></use>
                        <path stroke="#FFD922" stroke-width="16" d="M136,100 L56,100 L56,92 C56,69.90861 73.90861,52 96,52 C118.09139,52 136,69.90861 136,92 L136,100 Z"></path>
                    </g>
                    <path d="M84,7.99240541 C84,3.57832179 87.5907123,0 92,0 C96.418278,0 100,3.57766074 100,7.99240541 L100,24.0075946 C100,28.4216782 96.4092877,32 92,32 C87.581722,32 84,28.4223393 84,24.0075946 L84,7.99240541 Z M145.745486,26.9408059 C148.866714,23.8195775 153.935987,23.8283389 157.053824,26.9461761 C160.178018,30.0703705 160.18089,35.1328185 157.059194,38.2545144 L145.734745,49.5789633 C142.613517,52.7001918 137.544244,52.6914304 134.426407,49.5735931 C131.302213,46.4493988 131.299341,41.3869507 134.421037,38.2652548 L145.745486,26.9408059 Z M176.007595,84 C180.421678,84 184,87.5907123 184,92 C184,96.418278 180.422339,100 176.007595,100 L159.992405,100 C155.578322,100 152,96.4092877 152,92 C152,87.581722 155.577661,84 159.992405,84 L176.007595,84 Z M7.99240541,100 C3.57832179,100 1.11675369e-15,96.4092877 3.0678068e-16,92 C-5.04843821e-16,87.581722 3.57766074,84 7.99240541,84 L24.0075946,84 C28.4216782,84 32,87.5907123 32,92 C32,96.418278 28.4223393,100 24.0075946,100 L7.99240541,100 Z M26.9408059,38.2545144 C23.8195775,35.133286 23.8283389,30.0640134 26.9461761,26.9461761 C30.0703705,23.8219818 35.1328185,23.8191101 38.2545144,26.9408059 L49.5789633,38.2652548 C52.7001918,41.3864833 52.6914304,46.4557559 49.5735931,49.5735931 C46.4493988,52.6977875 41.3869507,52.7006592 38.2652548,49.5789633 L26.9408059,38.2545144 Z" id="light" fill="#FFD922"></path>
                </g>
            </g>
        </g>
    </g>
</svg>